<?xml version="1.0" encoding="UTF-8" ?>
<!DOCTYPE svg PUBLIC "-//W3C//DTD SVG 1.1//EN" "http://www.w3.org/Graphics/SVG/1.1/DTD/svg11.dtd">
<svg width="1275pt" height="784pt" viewBox="0 0 1275 784" version="1.1" xmlns="http://www.w3.org/2000/svg">
<path fill="#fdfdfd" d=" M 0.00 0.00 L 1275.00 0.00 L 1275.00 784.00 L 0.00 784.00 L 0.00 0.00 Z" />
<path fill="#0f0f0f" d=" M 364.20 24.29 C 365.84 23.76 367.50 23.29 369.16 22.78 C 370.34 23.27 371.57 23.67 372.67 24.35 C 448.62 75.31 524.74 126.03 600.74 176.92 C 604.58 179.54 608.58 181.92 612.21 184.84 C 612.54 185.38 613.18 186.47 613.51 187.01 C 612.77 190.05 612.05 193.09 611.18 196.10 C 610.37 198.71 609.69 201.36 608.92 203.98 C 608.28 206.32 607.64 208.66 606.95 210.99 C 592.49 262.74 577.55 314.35 563.14 366.10 C 562.43 368.43 561.76 370.76 561.17 373.12 C 560.47 375.44 559.79 377.78 559.22 380.14 C 558.72 381.71 558.30 383.30 557.81 384.88 C 557.21 387.23 556.56 389.58 555.86 391.91 C 555.23 394.26 554.58 396.60 553.89 398.93 C 549.89 413.43 545.71 427.88 541.66 442.37 L 541.93 444.14 C 541.44 443.85 540.95 443.57 540.45 443.32 C 540.31 445.89 540.08 448.48 539.25 450.94 C 534.63 466.81 530.28 482.77 525.63 498.63 C 522.89 503.38 516.45 500.51 512.11 502.21 C 508.44 502.45 504.74 502.44 501.14 503.21 C 479.78 504.92 458.44 507.00 437.12 509.10 C 390.10 513.21 343.11 517.79 296.10 522.11 C 289.83 522.22 283.34 524.35 277.21 522.96 C 203.29 480.53 129.55 437.77 55.68 395.25 C 47.54 390.49 39.33 385.86 31.18 381.12 C 27.76 379.05 23.80 377.59 21.36 374.25 C 21.66 372.41 22.16 370.63 22.72 368.86 C 23.26 367.63 23.76 366.37 24.26 365.13 C 25.35 361.69 26.62 358.31 27.77 354.89 C 28.25 353.61 28.70 352.31 29.17 351.04 C 29.50 350.06 29.84 349.09 30.18 348.12 C 44.59 306.98 59.45 266.00 73.82 224.84 C 75.86 219.21 77.83 213.55 79.78 207.89 C 80.25 206.62 80.70 205.34 81.18 204.07 C 81.51 203.10 81.86 202.12 82.21 201.16 C 83.04 198.70 83.92 196.27 84.74 193.82 C 98.75 154.17 112.98 114.60 126.90 74.91 C 127.38 73.65 127.80 72.36 128.24 71.08 C 128.80 69.98 129.37 68.89 129.91 67.78 C 134.48 66.30 139.26 65.71 143.96 64.80 C 202.99 53.92 261.98 42.84 321.03 32.04 C 322.71 31.67 324.41 31.41 326.11 31.13 C 329.73 30.36 333.37 29.71 337.03 29.13 C 340.99 28.27 345.02 27.72 348.98 26.82 C 350.34 26.62 351.71 26.42 353.08 26.22 C 355.34 25.69 357.63 25.33 359.89 24.78 C 361.31 24.60 362.75 24.43 364.20 24.29 Z" />
<path fill="#fdfdfd" d=" M 350.07 36.95 C 353.92 36.21 357.77 35.41 361.69 35.13 C 358.13 48.54 353.75 61.73 350.10 75.11 C 349.76 76.11 349.44 77.10 349.12 78.10 C 348.40 80.76 347.71 83.43 346.74 86.01 C 346.62 86.52 346.39 87.54 346.27 88.05 C 345.48 90.69 344.70 93.33 343.87 95.96 C 343.54 96.97 343.24 97.99 342.95 99.02 C 341.37 104.69 339.76 110.36 337.95 115.96 C 322.66 168.81 306.37 221.38 291.23 274.28 C 290.11 277.53 289.05 280.81 288.29 284.17 C 287.19 287.42 286.15 290.68 285.33 294.02 C 280.84 309.43 276.14 324.78 271.72 340.22 C 271.26 340.51 270.36 341.10 269.91 341.39 C 266.86 341.51 263.69 341.14 260.78 342.27 C 257.80 342.52 254.68 342.15 251.83 343.25 C 248.86 343.50 245.75 343.13 242.91 344.24 C 239.94 344.48 236.84 344.10 234.00 345.22 C 222.36 345.82 210.84 347.69 199.22 348.68 C 154.01 353.65 108.75 358.51 63.54 363.51 C 59.89 364.29 56.08 363.77 52.48 364.86 C 46.33 365.12 40.27 366.29 34.09 366.44 C 34.34 366.12 34.82 365.48 35.06 365.16 C 49.16 323.56 64.62 282.43 78.84 240.86 C 79.50 239.18 80.16 237.50 80.76 235.81 C 81.39 233.84 82.11 231.90 82.71 229.92 C 83.75 226.88 84.77 223.84 86.01 220.88 C 92.81 200.63 100.39 180.65 107.25 160.42 C 112.99 144.93 118.46 129.32 123.87 113.71 C 126.69 107.00 128.47 99.91 131.27 93.19 C 132.07 90.71 132.95 88.25 133.75 85.77 C 134.41 83.82 135.13 81.89 135.74 79.92 C 136.14 78.84 136.54 77.77 136.93 76.69 C 153.51 72.80 170.45 70.57 187.12 67.04 C 239.77 57.60 292.29 47.39 344.95 37.97 C 346.64 37.57 348.35 37.28 350.07 36.95 Z" />
<path fill="#fdfdfd" d=" M 372.41 36.46 C 411.71 62.85 451.26 88.86 490.43 115.44 C 527.70 140.10 564.69 165.17 601.98 189.81 C 601.14 195.67 599.13 201.27 597.64 206.97 C 592.61 224.48 587.66 242.02 582.76 259.57 C 575.44 285.05 568.09 310.53 561.14 336.12 C 560.78 337.11 560.43 338.11 560.09 339.11 C 559.76 340.42 559.47 341.74 559.18 343.07 C 558.28 345.65 557.63 348.32 556.85 350.95 C 555.48 355.60 554.47 360.35 552.91 364.95 C 552.41 367.32 551.71 369.64 550.95 371.94 C 550.43 374.31 549.71 376.64 548.99 378.96 C 538.83 415.36 528.51 451.73 518.01 488.04 C 491.64 472.15 465.56 455.77 439.20 439.86 C 434.55 437.17 430.08 434.20 425.45 431.51 C 423.85 430.43 422.17 429.47 420.50 428.51 C 403.22 417.83 385.96 407.11 368.56 396.61 C 339.57 378.84 310.47 361.24 281.65 343.20 C 281.71 342.91 281.82 342.34 281.88 342.05 C 286.90 326.18 291.15 310.06 296.16 294.18 C 311.34 241.29 327.69 188.74 342.85 135.85 C 343.19 134.85 343.52 133.86 343.84 132.87 C 344.17 131.87 344.48 130.87 344.78 129.87 C 345.25 128.26 345.63 126.62 346.10 125.01 C 346.43 124.00 346.77 122.99 347.10 121.97 C 348.88 115.26 350.93 108.62 353.00 102.00 C 353.56 99.65 354.25 97.34 355.00 95.06 C 355.82 91.66 356.95 88.36 357.98 85.02 C 360.65 75.56 363.61 66.17 366.27 56.70 C 368.53 50.02 370.23 43.16 372.41 36.46 Z" />
<path fill="#0f0f0f" d=" M 274.05 74.00 C 282.26 66.09 293.15 59.28 305.03 60.89 C 310.33 62.32 315.07 65.82 317.44 70.84 C 320.76 78.61 319.84 87.41 317.28 95.25 C 312.06 109.82 301.52 123.00 287.17 129.34 C 285.09 130.00 283.00 130.59 280.95 131.32 C 274.15 132.37 266.43 130.58 262.03 124.96 C 258.08 119.54 257.11 112.46 258.02 105.94 C 259.33 93.78 265.93 82.86 274.05 74.00 Z" />
<path fill="#0f0f0f" d=" M 155.50 89.59 C 160.37 87.41 166.17 86.23 171.27 88.32 C 175.01 89.75 177.80 92.98 179.34 96.61 C 181.41 101.10 180.56 106.18 180.52 110.96 C 177.93 125.52 169.07 138.43 157.65 147.59 C 151.91 151.63 145.14 155.33 137.90 154.71 C 131.94 154.12 127.31 149.48 125.11 144.15 C 123.18 134.31 125.31 124.09 130.24 115.43 C 135.77 104.56 144.33 94.86 155.50 89.59 Z" />
<path fill="#0f0f0f" d=" M 983.70 179.73 C 985.91 179.37 988.15 179.58 989.85 181.20 C 1070.06 241.98 1150.23 302.83 1230.51 363.52 C 1231.89 364.59 1232.04 366.46 1231.79 368.07 C 1222.45 402.05 1213.21 436.06 1204.11 470.11 C 1202.57 475.36 1201.29 480.69 1199.79 485.95 C 1199.26 488.01 1198.68 490.06 1198.20 492.14 C 1197.71 493.72 1197.31 495.33 1196.85 496.92 C 1195.99 500.32 1195.01 503.68 1194.20 507.09 C 1193.70 508.67 1193.29 510.28 1192.82 511.88 C 1192.24 514.26 1191.59 516.63 1190.95 519.00 C 1179.12 563.07 1167.05 607.08 1155.16 651.13 C 1153.91 654.88 1153.64 659.11 1151.51 662.49 C 1148.15 664.99 1143.83 665.73 1140.03 667.37 C 1109.73 678.66 1079.46 690.01 1049.15 701.28 C 1047.73 701.77 1046.31 702.28 1044.90 702.78 C 1043.64 703.28 1042.35 703.75 1041.11 704.26 C 1038.43 705.18 1035.77 706.16 1033.13 707.20 C 1030.44 708.14 1027.77 709.11 1025.12 710.15 C 1022.43 711.11 1019.75 712.08 1017.10 713.10 C 982.06 726.06 947.11 739.22 912.09 752.22 C 909.69 753.08 907.30 753.97 904.91 754.84 C 902.25 755.88 899.57 756.85 896.89 757.80 C 895.64 758.29 894.37 758.75 893.14 759.25 C 890.47 760.15 887.82 761.12 885.24 762.25 C 883.16 763.09 880.97 763.53 878.74 763.58 C 803.15 696.72 727.28 630.16 651.65 563.34 C 649.45 561.49 650.21 558.30 650.55 555.84 C 651.70 549.56 652.89 543.29 654.00 537.00 C 654.69 533.35 655.36 529.70 656.00 526.04 C 656.36 524.35 656.61 522.63 656.92 520.93 C 657.66 517.28 658.29 513.61 658.92 509.95 C 659.66 506.29 660.33 502.62 660.87 498.94 C 661.76 495.01 662.32 491.01 663.16 487.08 C 663.65 483.71 664.37 480.38 664.92 477.02 C 666.06 471.38 666.89 465.68 668.13 460.05 C 668.66 456.37 669.34 452.70 670.08 449.05 C 681.34 386.72 693.12 324.47 704.38 262.14 C 704.59 260.02 705.97 258.00 708.10 257.46 C 728.78 251.80 749.38 245.78 770.06 240.08 C 772.38 239.40 774.73 238.76 777.08 238.12 C 779.39 237.43 781.71 236.78 784.05 236.20 C 785.64 235.71 787.24 235.26 788.85 234.78 C 793.56 233.57 798.23 232.21 802.90 230.85 C 805.25 230.25 807.59 229.58 809.93 228.89 C 860.68 214.80 911.29 200.20 962.02 186.06 C 964.34 185.38 966.68 184.74 969.04 184.12 C 971.66 183.33 974.31 182.64 976.95 181.85 C 979.24 181.30 981.50 180.62 983.70 179.73 Z" />
<path fill="#fdfdfd" d=" M 864.59 223.96 C 904.48 213.01 944.19 201.38 984.05 190.35 C 984.98 190.36 985.81 190.67 986.55 191.30 C 1025.39 221.22 1064.89 250.31 1103.63 280.37 L 1104.47 280.61 C 1111.38 286.09 1118.42 291.43 1125.54 296.66 C 1155.48 319.61 1185.72 342.16 1215.67 365.11 C 1206.82 369.05 1197.33 371.70 1188.20 375.01 C 1180.21 378.09 1172.00 380.55 1163.95 383.46 C 1160.67 384.77 1157.31 385.85 1153.97 386.96 C 1152.97 387.29 1151.98 387.63 1151.01 387.98 C 1150.02 388.31 1149.04 388.63 1148.07 388.94 C 1146.77 389.39 1145.47 389.80 1144.20 390.25 C 1142.47 390.84 1140.78 391.51 1139.11 392.18 C 1138.10 392.49 1137.10 392.82 1136.13 393.16 C 1089.29 409.12 1042.73 425.86 995.92 441.88 C 994.93 442.23 993.96 442.57 992.99 442.92 C 992.00 443.24 991.01 443.55 990.04 443.86 C 987.33 444.81 984.62 445.73 981.94 446.72 C 980.67 447.22 979.38 447.66 978.13 448.14 C 977.11 448.43 976.11 448.75 975.13 449.07 C 968.95 450.97 963.00 453.52 956.82 455.38 C 953.50 453.83 951.23 450.82 948.25 448.79 C 901.68 411.27 855.24 373.60 808.73 336.01 C 785.20 317.24 762.08 297.93 738.42 279.32 C 736.84 277.87 735.21 276.48 733.40 275.34 C 729.30 271.48 724.70 268.22 720.40 264.60 C 743.60 258.04 766.79 251.41 790.03 244.98 C 792.33 244.24 794.65 243.53 797.03 243.01 C 799.31 242.24 801.63 241.56 803.99 241.02 C 807.98 239.96 811.94 238.75 815.95 237.74 C 816.94 237.41 817.93 237.08 818.93 236.76 C 820.24 236.46 821.56 236.16 822.89 235.84 C 823.88 235.49 824.87 235.14 825.87 234.79 C 828.24 234.31 830.57 233.63 832.87 232.85 C 843.51 230.16 854.05 227.04 864.59 223.96 Z" />
<path fill="#0f0f0f" d=" M 960.63 202.60 C 973.38 201.04 986.41 204.47 997.65 210.46 C 1006.52 215.77 1015.40 223.47 1017.46 234.11 C 1019.01 241.12 1015.47 248.63 1009.68 252.65 C 1004.03 256.90 996.86 258.33 989.98 259.03 C 973.99 259.51 957.67 253.93 945.79 243.09 C 940.49 237.79 935.94 230.75 936.30 222.97 C 936.17 218.09 938.85 213.57 942.34 210.33 C 947.26 205.64 954.02 203.51 960.63 202.60 Z" />
<path fill="#0f0f0f" d=" M 429.50 225.56 C 432.44 222.15 436.64 220.34 440.81 218.94 C 447.96 217.15 455.61 218.92 461.53 223.21 C 471.52 230.53 476.30 242.99 477.91 254.91 C 478.22 262.91 478.39 271.08 475.77 278.76 C 473.45 285.48 470.46 292.32 464.98 297.08 C 459.29 303.64 449.97 306.56 441.53 304.77 C 434.61 303.00 428.44 298.50 424.50 292.56 C 417.73 283.21 415.08 271.39 415.25 259.98 C 415.98 247.44 419.74 234.11 429.50 225.56 Z" />
<path fill="#0f0f0f" d=" M 220.76 241.90 C 227.47 238.18 235.47 236.83 242.91 238.88 C 247.10 240.86 251.16 243.63 253.40 247.82 C 257.04 254.61 257.55 262.70 256.05 270.16 C 252.91 285.69 243.71 299.70 231.20 309.31 C 224.35 314.42 215.85 317.97 207.20 317.32 C 200.40 316.79 194.60 312.31 191.23 306.57 C 188.37 300.21 187.53 292.87 189.15 286.07 C 189.40 284.43 189.65 282.78 190.00 281.16 C 194.88 264.92 205.60 249.92 220.76 241.90 Z" />
<path fill="#0f0f0f" d=" M 786.34 257.37 C 792.86 251.18 802.19 248.91 810.97 249.16 C 820.54 248.78 829.97 251.52 838.61 255.44 C 848.49 260.59 858.48 268.12 861.49 279.39 C 862.18 283.94 862.27 288.91 859.92 293.04 C 857.14 297.76 852.42 300.95 847.47 303.05 C 830.87 308.86 812.14 304.72 797.53 295.63 C 789.30 290.58 782.21 282.61 780.64 272.82 C 779.96 267.18 782.08 261.18 786.34 257.37 Z" />
<path fill="#0f0f0f" d=" M 79.60 270.54 C 86.22 262.92 94.36 255.13 105.01 254.44 C 110.10 254.86 115.39 257.55 117.51 262.41 C 120.92 269.79 120.15 278.32 118.31 286.02 C 114.21 301.29 106.09 315.73 94.13 326.21 C 88.32 331.09 80.78 335.26 72.95 333.33 C 68.36 332.01 64.97 328.00 63.52 323.56 C 62.71 320.42 62.27 317.21 61.84 314.01 C 62.37 311.30 62.72 308.56 63.09 305.84 C 65.51 292.92 71.76 280.98 79.60 270.54 Z" />
<path fill="#0f0f0f" d=" M 1026.45 258.50 C 1039.30 255.94 1052.95 258.32 1064.56 264.24 C 1073.45 268.41 1081.65 275.12 1085.87 284.15 C 1086.24 285.13 1086.63 286.11 1087.03 287.09 C 1088.60 293.39 1087.42 300.23 1082.92 305.06 C 1076.43 311.41 1067.00 314.28 1058.05 314.01 C 1045.93 314.55 1033.92 310.55 1023.63 304.32 C 1015.60 299.20 1008.17 291.64 1006.50 281.92 C 1005.69 278.47 1006.59 274.91 1007.75 271.65 C 1011.08 264.25 1018.89 260.24 1026.45 258.50 Z" />
<path fill="#fdfdfd" d=" M 712.80 271.79 C 721.09 278.39 729.18 285.28 737.64 291.67 C 754.84 305.82 772.19 319.81 789.53 333.79 C 811.87 351.72 833.98 369.96 856.38 387.83 C 875.01 402.87 893.53 418.07 912.26 432.98 C 924.61 443.08 936.97 453.18 949.52 463.02 C 945.06 482.53 939.74 501.84 935.10 521.31 C 934.71 522.62 934.39 523.94 934.12 525.29 C 932.38 531.86 930.78 538.46 929.18 545.07 C 928.79 546.37 928.48 547.70 928.21 549.05 C 925.49 558.27 923.54 567.71 921.04 576.99 C 920.68 578.31 920.40 579.65 920.07 580.98 C 919.70 582.30 919.40 583.64 919.05 584.97 C 918.40 587.64 917.75 590.30 917.04 592.96 C 904.53 643.63 891.20 694.09 878.78 744.78 C 878.21 746.03 878.75 748.22 877.04 748.62 C 815.41 694.03 753.46 639.75 691.77 585.21 C 681.20 576.30 671.22 566.71 660.53 557.93 C 660.59 557.19 660.69 555.72 660.74 554.98 C 662.11 549.76 663.03 544.41 663.79 539.06 C 664.25 537.42 664.51 535.73 664.82 534.06 C 665.30 532.14 665.50 530.16 665.76 528.21 C 666.23 526.56 666.50 524.85 666.78 523.17 C 667.32 520.83 667.52 518.42 668.10 516.10 C 668.39 514.40 668.66 512.70 669.10 511.05 C 669.51 507.34 670.22 503.67 671.10 500.05 C 671.69 494.65 672.96 489.35 674.04 484.03 C 674.72 478.61 675.94 473.29 676.90 467.92 C 677.58 464.27 678.12 460.60 678.87 456.97 C 688.54 404.26 698.29 351.55 708.03 298.85 C 708.41 296.90 708.68 294.93 708.96 292.96 C 709.36 291.29 709.65 289.61 709.97 287.93 C 710.80 282.53 712.20 277.23 712.80 271.79 Z" />
<path fill="#0f0f0f" d=" M 869.42 304.54 C 883.16 301.25 897.67 304.62 910.08 310.84 C 918.64 315.55 926.55 322.45 930.29 331.68 C 931.76 336.34 931.87 341.32 929.92 345.87 C 925.07 355.86 913.37 359.43 903.08 360.12 C 888.98 360.37 874.66 356.04 863.39 347.48 C 857.87 343.62 853.60 338.02 851.23 331.74 C 849.20 326.49 849.40 320.18 852.65 315.47 C 856.30 309.57 862.81 306.07 869.42 304.54 Z" />
<path fill="#0f0f0f" d=" M 1091.55 318.42 C 1103.94 313.46 1118.04 315.00 1130.31 319.65 C 1141.09 323.71 1151.60 330.64 1156.75 341.31 C 1158.33 345.31 1160.03 349.81 1158.59 354.11 C 1158.12 355.98 1157.38 357.77 1156.64 359.55 C 1152.34 366.43 1144.59 370.14 1136.82 371.47 C 1125.54 373.04 1113.85 371.39 1103.49 366.67 C 1093.84 362.68 1085.03 356.03 1080.00 346.72 C 1078.29 342.31 1077.15 337.69 1077.73 332.92 C 1079.79 326.21 1084.97 320.84 1091.55 318.42 Z" />
<path fill="#0f0f0f" d=" M 711.86 338.21 C 714.69 331.61 719.80 325.18 727.19 323.71 C 732.39 322.32 737.84 323.91 742.43 326.45 C 748.84 330.08 753.42 336.02 757.07 342.28 C 762.72 352.59 765.22 364.37 765.47 376.04 C 765.43 377.42 765.24 378.81 764.87 380.14 C 764.63 382.43 764.55 384.76 764.06 387.02 C 763.68 388.31 763.36 389.63 763.02 390.93 C 760.63 398.40 755.42 405.14 748.00 408.10 C 741.17 410.05 733.77 407.96 728.28 403.67 C 723.21 399.30 718.67 394.22 715.80 388.11 C 715.57 387.61 715.09 386.61 714.85 386.11 C 714.21 384.70 713.58 383.30 712.94 381.91 C 712.61 380.93 712.28 379.95 711.96 378.99 C 710.88 375.40 709.84 371.79 709.35 368.08 C 708.08 363.84 708.83 359.35 708.62 355.00 C 708.30 350.22 709.55 345.56 710.97 341.05 C 711.27 340.10 711.57 339.16 711.86 338.21 Z" />
<path fill="#fdfdfd" d=" M 229.13 356.02 C 243.41 354.24 257.75 353.02 272.03 351.29 C 273.11 351.27 274.19 351.28 275.27 351.32 C 286.73 359.09 298.86 365.84 310.51 373.32 C 347.92 396.05 385.20 418.97 422.53 441.84 C 424.16 442.89 425.83 443.88 427.52 444.84 C 428.80 445.65 430.11 446.43 431.43 447.22 C 456.03 462.20 480.46 477.44 505.10 492.36 C 503.38 492.51 501.67 492.68 499.97 492.88 C 496.72 493.92 493.26 493.40 489.91 493.76 C 486.42 495.13 482.56 494.23 478.92 494.77 C 475.09 496.35 470.72 494.69 466.88 496.35 C 453.28 496.90 439.81 498.91 426.23 499.78 C 422.18 500.90 417.84 499.84 413.84 501.23 C 410.50 501.40 407.15 501.48 403.80 501.60 C 403.66 501.80 403.36 502.20 403.22 502.40 C 399.81 502.38 396.28 502.04 393.01 503.22 C 383.25 503.37 373.62 505.06 363.87 505.52 C 355.93 506.70 347.82 506.63 339.94 508.08 C 320.16 509.29 300.48 511.81 280.71 513.27 C 273.25 509.21 266.06 504.67 258.59 500.62 C 254.30 498.10 249.94 495.70 245.66 493.18 C 217.85 477.32 190.31 460.99 162.46 445.19 C 160.83 444.16 159.16 443.17 157.45 442.28 C 128.31 425.49 99.20 408.64 70.10 391.77 C 69.62 391.54 68.65 391.06 68.17 390.82 C 66.52 389.81 64.86 388.82 63.20 387.82 C 62.71 387.59 61.73 387.11 61.25 386.88 C 58.72 385.29 56.13 383.80 53.48 382.44 C 51.86 381.34 50.15 380.38 48.43 379.47 C 46.65 378.33 44.89 377.17 43.15 375.98 C 53.83 375.47 64.40 373.68 75.04 372.78 C 85.52 371.44 96.11 370.76 106.54 369.16 C 121.02 367.90 135.43 366.04 149.89 364.62 C 153.41 363.77 157.13 364.34 160.60 363.20 C 183.48 361.26 206.26 358.21 229.13 356.02 Z" />
<path fill="#0f0f0f" d=" M 933.07 365.00 C 940.99 362.05 949.72 361.17 958.03 362.85 C 970.50 364.87 982.92 370.05 991.59 379.50 C 996.70 384.27 1000.00 391.05 1000.18 398.07 C 999.58 404.38 996.06 410.38 990.51 413.56 C 980.38 419.72 967.76 419.93 956.48 417.34 C 945.14 414.69 933.99 409.44 926.13 400.67 C 921.04 395.13 917.75 387.59 918.75 379.97 C 920.67 373.01 926.30 367.36 933.07 365.00 Z" />
<path fill="#0f0f0f" d=" M 224.62 373.65 C 229.48 369.57 235.82 368.72 241.93 368.38 C 258.15 368.58 274.29 372.69 288.79 379.96 C 294.49 383.04 300.08 386.77 303.86 392.15 C 305.66 394.52 305.24 397.56 305.35 400.35 C 302.19 407.74 293.18 409.28 286.01 409.20 C 277.52 409.66 269.16 407.86 260.91 406.06 C 257.22 404.96 253.55 403.78 249.89 402.56 C 239.75 398.36 228.35 393.79 222.91 383.55 C 222.74 382.29 222.54 381.03 222.30 379.79 C 222.65 377.60 223.46 375.54 224.62 373.65 Z" />
<path fill="#fdfdfd" d=" M 1190.07 385.34 C 1199.88 382.27 1209.42 378.39 1219.26 375.40 C 1213.44 396.60 1207.60 417.80 1202.07 439.07 C 1201.71 440.08 1201.37 441.10 1201.04 442.12 C 1200.70 443.42 1200.39 444.72 1200.13 446.04 C 1199.64 447.68 1199.25 449.34 1198.77 450.98 C 1198.32 453.01 1197.73 455.01 1197.18 457.02 C 1196.16 460.65 1195.24 464.32 1194.21 467.95 C 1193.75 469.57 1193.29 471.19 1192.85 472.82 C 1192.54 474.13 1192.26 475.45 1191.90 476.76 C 1191.56 477.80 1191.23 478.84 1190.90 479.89 C 1190.57 481.21 1190.27 482.54 1189.91 483.86 C 1186.12 498.58 1181.99 513.23 1178.09 527.93 C 1167.47 567.34 1156.53 606.66 1146.12 646.13 C 1145.72 647.43 1145.36 648.73 1145.01 650.05 C 1144.75 651.14 1144.54 652.25 1144.37 653.37 C 1143.48 655.15 1141.73 656.02 1140.02 656.81 C 1114.02 666.01 1088.24 675.87 1062.46 685.65 C 1048.50 690.47 1034.82 696.09 1020.86 700.89 C 1017.09 702.47 1013.16 703.64 1009.41 705.24 C 1006.71 706.13 1004.03 707.09 1001.42 708.20 C 999.58 708.81 997.77 709.47 995.97 710.15 C 967.11 720.91 938.20 731.56 909.43 742.54 C 902.20 744.67 895.44 748.28 888.08 749.90 C 889.70 743.63 891.19 737.33 892.86 731.08 C 902.93 691.37 913.11 651.67 922.97 611.91 C 923.33 610.59 923.64 609.25 923.99 607.94 C 924.32 606.63 924.62 605.30 924.96 604.01 C 925.31 602.68 925.61 601.34 925.97 600.03 C 926.30 598.73 926.57 597.40 926.91 596.11 C 928.27 590.74 929.61 585.36 931.09 580.02 C 931.38 578.67 931.68 577.35 932.06 576.03 C 932.67 573.36 933.34 570.70 934.07 568.06 C 934.36 566.72 934.68 565.39 935.03 564.07 C 935.35 562.72 935.69 561.40 936.06 560.07 C 936.66 557.40 937.31 554.74 938.07 552.12 C 944.31 526.52 950.94 501.03 957.26 475.46 C 957.65 474.14 957.96 472.81 958.30 471.49 C 958.67 470.17 958.92 468.82 959.20 467.48 C 959.46 466.92 959.97 465.82 960.23 465.26 C 978.51 458.81 996.87 452.56 1015.16 446.16 C 1016.13 445.82 1017.12 445.50 1018.12 445.19 C 1019.08 444.82 1020.05 444.47 1021.05 444.15 C 1022.02 443.79 1023.02 443.46 1024.04 443.16 C 1025.00 442.81 1025.99 442.48 1026.98 442.15 C 1028.30 441.69 1029.61 441.26 1030.95 440.81 C 1031.48 440.56 1032.53 440.05 1033.05 439.80 C 1033.54 439.69 1034.52 439.47 1035.01 439.36 C 1035.98 439.00 1036.96 438.63 1037.95 438.26 C 1039.27 437.84 1040.57 437.40 1041.90 436.94 C 1089.95 420.27 1137.89 403.28 1186.02 386.82 C 1187.34 386.30 1188.70 385.80 1190.07 385.34 Z" />
<path fill="#0f0f0f" d=" M 1151.52 421.46 C 1157.87 416.13 1165.51 411.58 1173.98 411.16 C 1179.98 411.31 1186.35 414.34 1189.04 419.93 C 1191.29 425.27 1192.32 431.30 1190.93 437.01 C 1190.61 438.63 1190.37 440.28 1190.03 441.91 C 1186.75 452.99 1180.77 463.37 1172.24 471.24 C 1165.82 478.08 1157.31 483.52 1147.80 484.42 C 1141.57 484.67 1134.85 481.62 1132.21 475.72 C 1128.74 469.30 1129.26 461.66 1130.86 454.78 C 1134.37 441.99 1141.53 430.21 1151.52 421.46 Z" />
<path fill="#0f0f0f" d=" M 854.26 448.13 C 858.06 442.65 864.23 438.46 871.03 438.22 C 873.45 438.05 875.86 438.44 878.28 438.66 C 888.50 441.79 896.15 450.10 900.70 459.51 C 903.97 465.48 905.75 472.14 906.84 478.83 C 907.27 488.53 907.61 498.82 902.77 507.62 C 899.28 514.99 892.14 520.94 883.81 521.48 C 875.31 522.14 867.19 517.50 861.56 511.40 C 853.88 502.71 849.23 491.46 847.98 479.98 C 846.29 469.09 848.32 457.49 854.26 448.13 Z" />
<path fill="#0f0f0f" d=" M 245.25 467.29 C 256.18 463.16 268.15 465.51 279.12 468.19 C 288.72 470.91 298.24 474.54 306.31 480.53 C 310.75 484.47 316.30 489.51 314.87 496.12 C 313.65 501.70 307.80 503.67 303.03 505.25 C 297.01 505.37 290.99 505.49 284.98 505.17 C 281.71 504.22 278.35 503.60 274.98 503.11 C 269.83 501.40 264.56 499.98 259.60 497.75 C 259.08 497.49 258.05 496.97 257.54 496.71 C 254.11 495.13 250.82 493.27 247.64 491.24 C 246.06 489.87 244.53 488.46 242.95 487.10 C 241.34 485.31 239.85 483.42 238.70 481.30 C 238.40 480.21 238.10 479.12 237.78 478.05 C 237.72 477.29 237.66 476.55 237.61 475.81 C 238.67 471.95 241.41 468.60 245.25 467.29 Z" />
<path fill="#0f0f0f" d=" M 777.27 470.26 C 786.14 466.80 796.19 470.85 802.71 477.17 C 810.51 484.28 815.12 494.08 818.06 504.05 C 818.41 505.96 818.63 507.88 818.91 509.81 C 820.35 517.14 819.78 524.83 818.08 532.09 C 816.14 537.06 814.08 542.28 810.02 545.95 C 807.84 548.30 804.79 549.45 802.06 551.02 C 798.09 551.82 794.02 551.46 790.01 551.33 C 784.77 549.14 779.63 546.45 775.67 542.30 C 772.18 538.34 769.07 534.02 766.73 529.27 C 766.26 528.23 765.78 527.19 765.31 526.17 C 764.09 522.84 763.00 519.46 761.90 516.10 C 761.67 514.37 761.46 512.63 760.83 511.01 C 760.69 503.92 759.98 496.68 761.85 489.75 C 762.55 487.77 763.18 485.77 763.78 483.77 C 766.60 477.97 770.98 472.42 777.27 470.26 Z" />
<path fill="#0f0f0f" d=" M 691.42 504.45 C 697.26 501.71 704.09 502.17 709.73 505.16 C 716.09 508.20 720.98 513.60 724.62 519.53 C 725.90 521.58 727.03 523.72 728.18 525.86 C 730.50 532.00 732.63 538.31 733.19 544.89 C 733.22 551.47 733.72 558.17 731.69 564.55 C 729.39 573.04 723.60 581.30 714.84 583.91 C 706.84 586.38 698.36 582.71 692.38 577.39 C 683.32 569.01 677.91 557.13 676.23 545.00 C 674.30 533.81 675.90 521.60 682.35 512.06 C 684.12 509.35 686.62 507.18 689.38 505.50 C 689.89 505.24 690.91 504.71 691.42 504.45 Z" />
<path fill="#0f0f0f" d=" M 1066.25 528.16 C 1072.87 527.22 1080.52 527.65 1085.38 532.89 C 1092.48 539.11 1093.16 549.33 1092.27 558.11 C 1090.98 563.26 1089.34 568.30 1087.31 573.20 C 1085.98 575.67 1084.50 578.07 1083.16 580.53 C 1077.33 588.53 1070.20 595.91 1061.20 600.29 C 1059.76 600.79 1058.36 601.35 1056.96 601.92 C 1052.02 603.33 1046.82 604.03 1041.87 602.31 C 1036.38 600.50 1032.35 596.17 1029.77 591.14 C 1027.06 584.05 1026.95 576.25 1028.96 568.97 C 1029.33 567.66 1029.62 566.33 1029.97 565.02 C 1030.96 562.65 1031.88 560.26 1032.84 557.88 C 1033.08 557.39 1033.58 556.39 1033.82 555.90 C 1035.36 553.17 1037.08 550.56 1038.81 547.94 C 1045.52 538.69 1054.93 530.81 1066.25 528.16 Z" />
<path fill="#0f0f0f" d=" M 811.00 635.82 C 813.30 626.52 819.39 617.09 829.13 614.53 C 834.26 613.78 839.86 613.82 844.46 616.56 C 856.84 623.22 863.73 636.79 866.80 650.02 C 867.97 653.60 867.28 657.44 868.29 661.05 C 868.20 668.35 867.54 675.82 864.54 682.59 C 861.68 689.05 856.78 695.13 849.93 697.54 C 843.46 700.03 836.14 698.21 830.44 694.65 C 823.94 689.98 818.69 683.62 815.31 676.35 C 813.52 672.37 812.29 668.18 811.00 664.03 C 810.70 662.32 810.46 660.61 809.95 658.97 C 809.23 652.65 809.27 646.34 809.94 640.02 C 810.35 638.63 810.68 637.22 811.00 635.82 Z" />
<path fill="#0f0f0f" d=" M 961.97 643.86 C 966.55 643.11 971.19 642.89 975.77 643.80 C 981.09 645.53 985.52 649.27 988.13 654.22 C 988.41 655.16 988.72 656.10 989.06 657.04 C 990.66 661.19 990.56 665.68 990.19 670.05 C 989.47 671.67 989.36 673.45 989.14 675.19 C 988.62 676.46 988.16 677.76 987.67 679.04 C 987.15 680.39 986.62 681.74 986.16 683.12 C 980.21 695.29 970.59 705.88 958.23 711.70 C 956.16 712.52 954.10 713.34 952.02 714.09 C 950.30 714.32 948.58 714.48 946.97 715.11 C 944.96 715.29 942.94 715.29 940.93 715.25 C 939.63 714.79 938.33 714.36 937.04 713.94 C 936.11 713.66 935.18 713.40 934.25 713.15 C 930.40 710.98 927.06 707.92 925.17 703.87 C 923.36 699.20 922.30 694.09 922.89 689.08 C 923.33 687.67 923.57 686.21 923.88 684.79 C 924.56 682.50 925.17 680.19 925.83 677.90 C 927.10 675.21 928.38 672.54 929.75 669.90 C 931.36 667.44 933.12 665.07 934.81 662.65 C 940.04 656.49 946.13 650.83 953.52 647.37 C 954.03 647.12 955.05 646.60 955.56 646.34 C 957.67 645.44 959.81 644.65 961.97 643.86 Z" />
</svg>
